<?xml version="1.0" encoding="UTF-8" standalone="no"?>
<!DOCTYPE svg PUBLIC "-//W3C//DTD SVG 1.1//EN"
 "http://www.w3.org/Graphics/SVG/1.1/DTD/svg11.dtd">
<!-- Generated by graphviz version 2.38.0 (20140413.2041)
 -->
<!-- Title: G Pages: 1 -->
<svg width="149pt" height="222pt"
 viewBox="0.00 0.00 149.00 222.00" xmlns="http://www.w3.org/2000/svg" xmlns:xlink="http://www.w3.org/1999/xlink">
<g id="graph0" class="graph" transform="scale(1 1) rotate(0) translate(4 218)">
<title>G</title>
<polygon fill="white" stroke="none" points="-4,4 -4,-218 145,-218 145,4 -4,4"/>
<g id="clust1" class="cluster"><title>cluster_Global</title>
<path fill="none" stroke="gray" d="M20,-8C20,-8 121,-8 121,-8 127,-8 133,-14 133,-20 133,-20 133,-194 133,-194 133,-200 127,-206 121,-206 121,-206 20,-206 20,-206 14,-206 8,-200 8,-194 8,-194 8,-20 8,-20 8,-14 14,-8 20,-8"/>
<text text-anchor="middle" x="70.5" y="-193.2" font-family="Times New Roman,serif" font-size="11.00" fill="gray">Global</text>
</g>
<g id="clust2" class="cluster"><title>cluster_\Slothsoft</title>
<path fill="none" stroke="gray" d="M28,-16C28,-16 113,-16 113,-16 119,-16 125,-22 125,-28 125,-28 125,-166 125,-166 125,-172 119,-178 113,-178 113,-178 28,-178 28,-178 22,-178 16,-172 16,-166 16,-166 16,-28 16,-28 16,-22 22,-16 28,-16"/>
<text text-anchor="middle" x="70.5" y="-165.2" font-family="Times New Roman,serif" font-size="11.00" fill="gray">Slothsoft</text>
</g>
<g id="clust3" class="cluster"><title>cluster_\Slothsoft\FireEmblem</title>
<path fill="none" stroke="gray" d="M36,-24C36,-24 105,-24 105,-24 111,-24 117,-30 117,-36 117,-36 117,-138 117,-138 117,-144 111,-150 105,-150 105,-150 36,-150 36,-150 30,-150 24,-144 24,-138 24,-138 24,-36 24,-36 24,-30 30,-24 36,-24"/>
<text text-anchor="middle" x="70.5" y="-137.2" font-family="Times New Roman,serif" font-size="11.00" fill="gray">FireEmblem</text>
</g>
<!-- \\Slothsoft\\FireEmblem\\Character -->
<g id="node1" class="node"><title>\\Slothsoft\\FireEmblem\\Character</title>
<polygon fill="none" stroke="black" points="109,-122 32,-122 32,-86 109,-86 109,-122"/>
<text text-anchor="middle" x="70.5" y="-101.2" font-family="Courier,monospace" font-size="11.00">Character</text>
</g>
<!-- \\Slothsoft\\FireEmblem\\Game -->
<g id="node2" class="node"><title>\\Slothsoft\\FireEmblem\\Game</title>
<polygon fill="none" stroke="black" points="97.5,-68 43.5,-68 43.5,-32 97.5,-32 97.5,-68"/>
<text text-anchor="middle" x="70.5" y="-47.2" font-family="Courier,monospace" font-size="11.00">Game</text>
</g>
</g>
</svg>
